<svg width="512" height="512" viewBox="0 0 512 512" xmlns="http://www.w3.org/2000/svg">
    <defs>
        <linearGradient id="bg" x1="0%" y1="0%" x2="100%" y2="100%">
            <stop offset="0%" style="stop-color:#1d4ed8" />
            <stop offset="100%" style="stop-color:#1e40af" />
        </linearGradient>
        <filter id="glow">
            <feGaussianBlur stdDeviation="8" result="blur" />
            <feMerge>
                <feMergeNode in="blur" />
                <feMergeNode in="SourceGraphic" />
            </feMerge>
        </filter>
        <filter id="shadow">
            <feDropShadow dx="0" dy="12" stdDeviation="20" flood-color="#00000033" />
        </filter>
    </defs>
    <rect width="512" height="512" rx="112" ry="112" fill="url(#bg)" />
    <ellipse cx="256" cy="120" rx="200" ry="80" fill="#ffffff08" />
    <g filter="url(#shadow)">
        <path
            d="M 116 155 H 396 A 44 44 0 0 1 440 199 V 319 A 44 44 0 0 1 396 363 H 200 L 120 420 V 363 A 44 44 0 0 1 72 319 V 199 A 44 44 0 0 1 116 155 Z"
            fill="#ffffff16" stroke="#ffffff22" stroke-width="1.5" />
    </g>
    <polyline points="112,259  172,259  200,200  228,318  256,259  300,259  316,230  332,288  348,259  400,259"
        fill="none" stroke="white" stroke-width="16" stroke-linecap="round" stroke-linejoin="round"
        filter="url(#glow)" />
</svg>